<?xml version="1.0" encoding="UTF-8" standalone="no"?>
<!-- Created with Inkscape (http://www.inkscape.org/) -->

<svg
   xmlns:ns0="http://www.iki.fi/pav/software/textext/"
   xmlns:osb="http://www.openswatchbook.org/uri/2009/osb"
   xmlns:dc="http://purl.org/dc/elements/1.1/"
   xmlns:cc="http://creativecommons.org/ns#"
   xmlns:rdf="http://www.w3.org/1999/02/22-rdf-syntax-ns#"
   xmlns:svg="http://www.w3.org/2000/svg"
   xmlns="http://www.w3.org/2000/svg"
   xmlns:xlink="http://www.w3.org/1999/xlink"
   xmlns:sodipodi="http://sodipodi.sourceforge.net/DTD/sodipodi-0.dtd"
   xmlns:inkscape="http://www.inkscape.org/namespaces/inkscape"
   width="22.258482mm"
   height="63.393463mm"
   viewBox="0 0 78.868637 224.62251"
   id="svg2"
   version="1.1"
   inkscape:version="0.91 r13725"
   sodipodi:docname="drawing.svg">
  <sodipodi:namedview
     id="base"
     pagecolor="#ffffff"
     bordercolor="#666666"
     borderopacity="1.0"
     inkscape:pageopacity="0.0"
     inkscape:pageshadow="2"
     inkscape:zoom="2.8"
     inkscape:cx="5.6962679"
     inkscape:cy="117.89471"
     inkscape:document-units="px"
     inkscape:current-layer="layer1"
     showgrid="false"
     inkscape:window-width="1855"
     inkscape:window-height="1176"
     inkscape:window-x="1985"
     inkscape:window-y="24"
     inkscape:window-maximized="1"
     fit-margin-top="0"
     fit-margin-left="0"
     fit-margin-right="0"
     fit-margin-bottom="0" />
  <defs
     id="defs4">
    <marker
       inkscape:isstock="true"
       style="overflow:visible"
       id="Arrow2Send"
       refX="0"
       refY="0"
       orient="auto"
       inkscape:stockid="Arrow2Send">
      <path
         transform="matrix(-0.3,0,0,-0.3,0.69,0)"
         d="M 8.7185878,4.0337352 -2.2072895,0.01601326 8.7185884,-4.0017078 c -1.7454984,2.3720609 -1.7354408,5.6174519 -6e-7,8.035443 z"
         style="fill:#000000;fill-opacity:1;fill-rule:evenodd;stroke:#000000;stroke-width:0.625;stroke-linejoin:round;stroke-opacity:1"
         id="path5026"
         inkscape:connector-curvature="0" />
    </marker>
    <marker
       inkscape:isstock="true"
       style="overflow:visible"
       id="Arrow2Mend"
       refX="0"
       refY="0"
       orient="auto"
       inkscape:stockid="Arrow2Mend">
      <path
         transform="scale(-0.6,-0.6)"
         d="M 8.7185878,4.0337352 -2.2072895,0.01601326 8.7185884,-4.0017078 c -1.7454984,2.3720609 -1.7354408,5.6174519 -6e-7,8.035443 z"
         style="fill:#000000;fill-opacity:1;fill-rule:evenodd;stroke:#000000;stroke-width:0.625;stroke-linejoin:round;stroke-opacity:1"
         id="path5020"
         inkscape:connector-curvature="0" />
    </marker>
    <marker
       inkscape:isstock="true"
       style="overflow:visible"
       id="Arrow1Lend"
       refX="0"
       refY="0"
       orient="auto"
       inkscape:stockid="Arrow1Lend">
      <path
         transform="matrix(-0.8,0,0,-0.8,-10,0)"
         style="fill:#000000;fill-opacity:1;fill-rule:evenodd;stroke:#000000;stroke-width:1pt;stroke-opacity:1"
         d="M 0,0 5,-5 -12.5,0 5,5 0,0 Z"
         id="path4996"
         inkscape:connector-curvature="0" />
    </marker>
    <inkscape:path-effect
       is_visible="true"
       id="path-effect4987"
       effect="spiro" />
    <inkscape:path-effect
       is_visible="true"
       id="path-effect4165"
       effect="spiro" />
    <linearGradient
       osb:paint="solid"
       id="linearGradient4140">
      <stop
         id="stop4142"
         offset="0"
         style="stop-color:#000000;stop-opacity:1;" />
    </linearGradient>
  </defs>
  <metadata
     id="metadata7">
    <rdf:RDF>
      <cc:Work
         rdf:about="">
        <dc:format>image/svg+xml</dc:format>
        <dc:type
           rdf:resource="http://purl.org/dc/dcmitype/StillImage" />
        <dc:title></dc:title>
      </cc:Work>
    </rdf:RDF>
  </metadata>
  <g
     id="layer1"
     inkscape:groupmode="layer"
     inkscape:label="Layer 1"
     transform="translate(-81.091506,-88.929195)">
    <rect
       y="-271.9411"
       x="99.287575"
       height="40"
       width="40"
       id="rect4138"
       style="opacity:1;fill:none;fill-opacity:1;fill-rule:nonzero;stroke:#000000;stroke-width:3;stroke-linecap:round;stroke-linejoin:round;stroke-miterlimit:4;stroke-dasharray:none;stroke-dashoffset:0;stroke-opacity:1"
       transform="scale(1,-1)" />
    <rect
       style="opacity:1;fill:none;fill-opacity:1;fill-rule:nonzero;stroke:#000000;stroke-width:3;stroke-linecap:round;stroke-linejoin:round;stroke-miterlimit:4;stroke-dasharray:none;stroke-dashoffset:0;stroke-opacity:1"
       id="rect4161"
       width="57.076389"
       height="57.076389"
       x="89.575203"
       y="-147.50558"
       transform="scale(1,-1)" />
    <path
       sodipodi:nodetypes="cccccccccccccc"
       inkscape:connector-curvature="0"
       inkscape:original-d="m 119.73214,230.88049 -0.0262,-15.69448 -6.91121,-3.52361 14.46198,-4.63837 -14.01555,-5.09378 13.45816,-3.46496 -13.44285,-4.67798 13.85865,-3.47765 -13.87396,-5.59623 13.77383,-3.20794 -14.04169,-5.02166 13.94158,-3.93306 -8.73963,-3.63954 -0.22887,-20.26289"
       inkscape:path-effect="#path-effect4165"
       id="path4163"
       d="m 119.73214,230.88049 -0.0262,-15.69448 -6.91121,-3.52361 14.46198,-4.63837 -14.01555,-5.09378 13.45816,-3.46496 -13.44285,-4.67798 13.85865,-3.47765 -13.87396,-5.59623 13.77383,-3.20794 -14.04169,-5.02166 13.94158,-3.93306 -8.73963,-3.63954 -0.22887,-20.26289"
       style="fill:none;fill-rule:evenodd;stroke:#000000;stroke-width:3;stroke-linecap:butt;stroke-linejoin:miter;stroke-miterlimit:4;stroke-dasharray:none;stroke-opacity:1" />
    <g
       transform="matrix(3,0,0,3,-565.46941,-276.36422)"
       ns0:text="M"
       ns0:preamble=""
       id="g4393">
      <defs
         id="defs4395">
        <g
           id="g4397">
          <symbol
             style="overflow:visible"
             overflow="visible"
             id="textext-172812a1-0">
            <path
               inkscape:connector-curvature="0"
               style="stroke:none"
               d=""
               id="path4400" />
          </symbol>
          <symbol
             style="overflow:visible"
             overflow="visible"
             id="textext-172812a1-1">
            <path
               inkscape:connector-curvature="0"
               style="stroke:none"
               d="M 2.40625,-6.59375 C 2.3125,-6.8125 2.28125,-6.8125 2.046875,-6.8125 l -1.671875,0 0,0.3125 0.234375,0 c 0.765625,0 0.78125,0.109375 0.78125,0.46875 l 0,4.984375 c 0,0.265625 0,0.734375 -1.015625,0.734375 L 0.375,0 c 0.34375,-0.015625 0.828125,-0.03125 1.15625,-0.03125 0.328125,0 0.828125,0.015625 1.171875,0.03125 l 0,-0.3125 c -1.03125,0 -1.03125,-0.46875 -1.03125,-0.734375 l 0,-5.375 0.015625,0 2.40625,6.203125 C 4.140625,-0.09375 4.1875,0 4.28125,0 4.390625,0 4.421875,-0.078125 4.46875,-0.1875 L 6.921875,-6.5 l 0,5.71875 c 0,0.359375 -0.015625,0.46875 -0.78125,0.46875 l -0.234375,0 0,0.3125 c 0.359375,-0.03125 1.046875,-0.03125 1.4375,-0.03125 0.375,0 1.046875,0 1.421875,0.03125 l 0,-0.3125 -0.25,0 c -0.765625,0 -0.78125,-0.109375 -0.78125,-0.46875 l 0,-5.25 C 7.734375,-6.390625 7.75,-6.5 8.515625,-6.5 l 0.25,0 0,-0.3125 -1.6875,0 C 6.8125,-6.8125 6.8125,-6.796875 6.75,-6.625 L 4.5625,-1 Z m 0,0"
               id="path4403" />
          </symbol>
        </g>
      </defs>
      <g
         id="textext-172812a1-2">
        <g
           style="fill:#000000;fill-opacity:1"
           id="g4406">
          <use
             height="100%"
             width="100%"
             xlink:href="#textext-172812a1-1"
             x="223.43201"
             y="134.765"
             id="use4408" />
        </g>
      </g>
    </g>
    <g
       id="g4492"
       transform="matrix(3,0,0,3,-561.82182,-142.61603)"
       ns0:preamble=""
       ns0:text="B">
      <defs
         id="defs4494">
        <g
           id="g4496">
          <symbol
             id="textext-71ab57d9-0"
             overflow="visible"
             style="overflow:visible">
            <path
               id="path4499"
               d=""
               style="stroke:none"
               inkscape:connector-curvature="0" />
          </symbol>
          <symbol
             id="textext-71ab57d9-1"
             overflow="visible"
             style="overflow:visible">
            <path
               id="path4502"
               d="m 2.21875,-3.65625 0,-2.4375 C 2.21875,-6.4375 2.234375,-6.5 2.703125,-6.5 l 1.234375,0 c 0.96875,0 1.3125,0.84375 1.3125,1.375 0,0.640625 -0.484375,1.46875 -1.59375,1.46875 z M 4.5625,-3.5625 C 5.53125,-3.75 6.21875,-4.390625 6.21875,-5.125 6.21875,-5.984375 5.296875,-6.8125 4,-6.8125 l -3.640625,0 0,0.3125 0.234375,0 c 0.765625,0 0.796875,0.109375 0.796875,0.46875 l 0,5.25 c 0,0.359375 -0.03125,0.46875 -0.796875,0.46875 l -0.234375,0 0,0.3125 3.90625,0 c 1.328125,0 2.21875,-0.890625 2.21875,-1.828125 0,-0.859375 -0.8125,-1.609375 -1.921875,-1.734375 z m -0.609375,3.25 -1.25,0 c -0.46875,0 -0.484375,-0.0625 -0.484375,-0.390625 l 0,-2.71875 1.875,0 C 5.078125,-3.421875 5.5,-2.5 5.5,-1.828125 5.5,-1.125 4.96875,-0.3125 3.953125,-0.3125 Z m 0,0"
               style="stroke:none"
               inkscape:connector-curvature="0" />
          </symbol>
        </g>
      </defs>
      <g
         id="textext-71ab57d9-2">
        <g
           id="g4505"
           style="fill:#000000;fill-opacity:1">
          <use
             id="use4507"
             y="134.765"
             x="223.43201"
             xlink:href="#textext-71ab57d9-1"
             width="100%"
             height="100%" />
        </g>
      </g>
    </g>
    <g
       ns0:text="K"
       ns0:preamble=""
       transform="matrix(3,0,0,3,-590.18889,-201.26149)"
       id="g4611">
      <defs
         id="defs4613">
        <g
           id="g4615">
          <symbol
             overflow="visible"
             id="textext-a0fa6e93-0"
             style="overflow:visible">
            <path
               style="stroke:none"
               d=""
               id="path4618"
               inkscape:connector-curvature="0" />
          </symbol>
          <symbol
             overflow="visible"
             id="textext-a0fa6e93-1"
             style="overflow:visible">
            <path
               style="stroke:none"
               d="M 3.984375,-4.171875 5.78125,-5.90625 C 5.859375,-5.984375 6.390625,-6.484375 7.203125,-6.5 l 0,-0.3125 C 6.9375,-6.78125 6.625,-6.78125 6.34375,-6.78125 c -0.359375,0 -0.921875,0 -1.265625,-0.03125 l 0,0.3125 c 0.40625,0.015625 0.46875,0.234375 0.46875,0.328125 0,0.15625 -0.109375,0.265625 -0.1875,0.328125 L 2.25,-2.859375 2.25,-6.03125 C 2.25,-6.390625 2.265625,-6.5 3.03125,-6.5 l 0.234375,0 0,-0.3125 c -0.34375,0.03125 -1.078125,0.03125 -1.46875,0.03125 -0.375,0 -1.125,0 -1.46875,-0.03125 l 0,0.3125 0.234375,0 c 0.765625,0 0.796875,0.109375 0.796875,0.46875 l 0,5.25 c 0,0.359375 -0.03125,0.46875 -0.796875,0.46875 l -0.234375,0 0,0.3125 c 0.34375,-0.03125 1.09375,-0.03125 1.46875,-0.03125 0.375,0 1.125,0 1.46875,0.03125 l 0,-0.3125 -0.234375,0 C 2.265625,-0.3125 2.25,-0.421875 2.25,-0.78125 l 0,-1.734375 1.15625,-1.109375 1.796875,2.671875 c 0.0625,0.09375 0.15625,0.21875 0.15625,0.34375 0,0.296875 -0.390625,0.296875 -0.59375,0.296875 l 0,0.3125 C 5.109375,-0.03125 5.8125,-0.03125 6.1875,-0.03125 c 0.359375,0 0.734375,0.015625 1.15625,0.03125 l 0,-0.3125 c -0.546875,0 -0.75,-0.03125 -1.046875,-0.46875 z m 0,0"
               id="path4621"
               inkscape:connector-curvature="0" />
          </symbol>
        </g>
      </defs>
      <g
         id="textext-a0fa6e93-2">
        <g
           style="fill:#000000;fill-opacity:1"
           id="g4624">
          <use
             xlink:href="#textext-a0fa6e93-1"
             x="223.43201"
             y="134.765"
             id="use4626"
             width="100%"
             height="100%" />
        </g>
      </g>
    </g>
    <g
       id="g4750"
       transform="matrix(3,0,0,3,-527.0518,-178.94615)"
       ns0:preamble=""
       ns0:text="$\\theta$">
      <defs
         id="defs4752">
        <g
           id="g4754">
          <symbol
             id="textext-bfdbd9ef-0"
             overflow="visible"
             style="overflow:visible">
            <path
               id="path4757"
               d=""
               style="stroke:none"
               inkscape:connector-curvature="0" />
          </symbol>
          <symbol
             id="textext-bfdbd9ef-1"
             overflow="visible"
             style="overflow:visible">
            <path
               id="path4760"
               d="m 4.53125,-4.984375 c 0,-0.65625 -0.171875,-2.046875 -1.1875,-2.046875 -1.390625,0 -2.921875,2.8125 -2.921875,5.09375 0,0.9375 0.28125,2.046875 1.1875,2.046875 1.40625,0 2.921875,-2.859375 2.921875,-5.09375 z M 1.46875,-3.625 C 1.640625,-4.25 1.84375,-5.046875 2.25,-5.765625 2.515625,-6.25 2.875,-6.8125 3.328125,-6.8125 c 0.484375,0 0.546875,0.640625 0.546875,1.203125 0,0.5 -0.078125,1 -0.3125,1.984375 z m 2,0.328125 C 3.359375,-2.84375 3.15625,-2 2.765625,-1.28125 c -0.34375,0.6875 -0.71875,1.171875 -1.15625,1.171875 -0.328125,0 -0.53125,-0.296875 -0.53125,-1.21875 0,-0.421875 0.0625,-1 0.3125,-1.96875 z m 0,0"
               style="stroke:none"
               inkscape:connector-curvature="0" />
          </symbol>
        </g>
      </defs>
      <g
         id="textext-bfdbd9ef-2">
        <g
           id="g4763"
           style="fill:#000000;fill-opacity:1">
          <use
             id="use4765"
             y="134.765"
             x="223.43201"
             xlink:href="#textext-bfdbd9ef-1"
             width="100%"
             height="100%" />
        </g>
      </g>
    </g>
    <g
       ns0:text="$q$"
       ns0:preamble=""
       transform="matrix(3,0,0,3,-523.83588,-240.01992)"
       id="g4909">
      <defs
         id="defs4911">
        <g
           id="g4913">
          <symbol
             style="overflow:visible"
             overflow="visible"
             id="textext-66ce18da-0">
            <path
               inkscape:connector-curvature="0"
               style="stroke:none"
               d=""
               id="path4916" />
          </symbol>
          <symbol
             style="overflow:visible"
             overflow="visible"
             id="textext-66ce18da-1">
            <path
               inkscape:connector-curvature="0"
               style="stroke:none"
               d="m 4.5,-4.296875 c 0,-0.046875 -0.03125,-0.09375 -0.09375,-0.09375 -0.109375,0 -0.515625,0.390625 -0.671875,0.6875 C 3.515625,-4.25 3.125,-4.40625 2.796875,-4.40625 c -1.171875,0 -2.390625,1.46875 -2.390625,2.921875 0,0.96875 0.578125,1.59375 1.3125,1.59375 0.421875,0 0.8125,-0.234375 1.171875,-0.59375 -0.09375,0.34375 -0.421875,1.6875 -0.453125,1.78125 -0.078125,0.28125 -0.15625,0.3125 -0.71875,0.328125 -0.125,0 -0.21875,0 -0.21875,0.203125 0,0 0,0.109375 0.125,0.109375 0.3125,0 0.671875,-0.03125 1,-0.03125 0.328125,0 0.6875,0.03125 1.03125,0.03125 0.046875,0 0.171875,0 0.171875,-0.203125 C 3.828125,1.625 3.734375,1.625 3.5625,1.625 3.09375,1.625 3.09375,1.5625 3.09375,1.46875 3.09375,1.390625 3.109375,1.328125 3.125,1.25 Z m -2.75,4.1875 c -0.609375,0 -0.640625,-0.765625 -0.640625,-0.9375 0,-0.484375 0.28125,-1.5625 0.453125,-1.984375 0.3125,-0.734375 0.828125,-1.15625 1.234375,-1.15625 0.65625,0 0.796875,0.8125 0.796875,0.875 0,0.0625 -0.546875,2.25 -0.578125,2.28125 C 2.859375,-0.75 2.296875,-0.109375 1.75,-0.109375 Z m 0,0"
               id="path4919" />
          </symbol>
        </g>
      </defs>
      <g
         id="textext-66ce18da-2">
        <g
           style="fill:#000000;fill-opacity:1"
           id="g4922">
          <use
             height="100%"
             width="100%"
             xlink:href="#textext-66ce18da-1"
             x="223.43201"
             y="134.765"
             id="use4924" />
        </g>
      </g>
    </g>
    <path
       inkscape:connector-curvature="0"
       inkscape:original-d="m 119.70307,294.84922 0,-17.17259"
       inkscape:path-effect="#path-effect4987"
       id="path4985"
       d="m 119.70307,294.84922 0,-17.17259"
       style="fill:none;fill-rule:evenodd;stroke:#000000;stroke-width:3;stroke-linecap:butt;stroke-linejoin:miter;stroke-miterlimit:4;stroke-dasharray:none;stroke-opacity:1;marker-end:url(#Arrow2Send)" />
    <g
       id="g5474"
       ns0:preamble=""
       ns0:text="$u$"
       transform="matrix(3,0,0,3,-559.46429,-91.071426)">
      <defs
         id="defs5476">
        <g
           id="g5478">
          <symbol
             id="textext-1649b281-0"
             overflow="visible"
             style="overflow:visible">
            <path
               id="path5481"
               d=""
               style="stroke:none"
               inkscape:connector-curvature="0" />
          </symbol>
          <symbol
             id="textext-1649b281-1"
             overflow="visible"
             style="overflow:visible">
            <path
               id="path5484"
               d="M 3.484375,-0.5625 C 3.59375,-0.15625 3.953125,0.109375 4.375,0.109375 4.71875,0.109375 4.953125,-0.125 5.109375,-0.4375 5.28125,-0.796875 5.40625,-1.40625 5.40625,-1.421875 c 0,-0.109375 -0.078125,-0.109375 -0.109375,-0.109375 -0.109375,0 -0.109375,0.046875 -0.140625,0.1875 -0.140625,0.5625 -0.328125,1.234375 -0.75,1.234375 -0.203125,0 -0.3125,-0.125 -0.3125,-0.453125 0,-0.21875 0.125,-0.6875 0.203125,-1.046875 L 4.578125,-2.6875 C 4.609375,-2.828125 4.703125,-3.203125 4.75,-3.359375 4.796875,-3.59375 4.890625,-3.96875 4.890625,-4.03125 c 0,-0.171875 -0.140625,-0.265625 -0.28125,-0.265625 -0.046875,0 -0.3125,0.015625 -0.390625,0.34375 -0.1875,0.734375 -0.625,2.484375 -0.75,3 -0.015625,0.046875 -0.40625,0.84375 -1.140625,0.84375 -0.515625,0 -0.609375,-0.453125 -0.609375,-0.8125 0,-0.5625 0.28125,-1.34375 0.53125,-2.03125 0.125,-0.3125 0.171875,-0.453125 0.171875,-0.640625 0,-0.4375 -0.3125,-0.8125 -0.8125,-0.8125 -0.953125,0 -1.3125,1.453125 -1.3125,1.53125 0,0.109375 0.09375,0.109375 0.109375,0.109375 0.109375,0 0.109375,-0.03125 0.15625,-0.1875 0.25,-0.859375 0.640625,-1.234375 1.015625,-1.234375 0.09375,0 0.25,0.015625 0.25,0.328125 0,0.234375 -0.109375,0.53125 -0.171875,0.671875 -0.375,1 -0.578125,1.609375 -0.578125,2.09375 0,0.953125 0.6875,1.203125 1.21875,1.203125 0.65625,0 1.015625,-0.453125 1.1875,-0.671875 z m 0,0"
               style="stroke:none"
               inkscape:connector-curvature="0" />
          </symbol>
        </g>
      </defs>
      <g
         id="textext-1649b281-2">
        <g
           id="g5487"
           style="fill:#000000;fill-opacity:1">
          <use
             id="use5489"
             y="134.765"
             x="223.43201"
             xlink:href="#textext-1649b281-1"
             width="100%"
             height="100%" />
        </g>
      </g>
    </g>
  </g>
</svg>
